<svg fill="#fff" xmlns="http://www.w3.org/2000/svg" width="567.376" height="519.354" viewBox="18.603 169.811 567.376 519.354" enable-background="new 18.603 169.811 567.376 519.354"><path d="M140.43 676.404c24.993-4.957 42.098-27.531 51.836-50.832h-13.217c-5.637 0-11.217-.111-16.732-.361-5.73 11.719-14.427 21.857-27.411 23.885-4.009-3.469-9.162-5.637-14.882-5.637-12.622 0-22.854 10.232-22.854 22.854s10.231 22.854 22.854 22.854c8.984-.001 16.676-5.228 20.406-12.763zM496.854 689.166c12.622 0 22.854-10.232 22.854-22.854s-10.231-22.854-22.854-22.854c-5.041 0-9.664 1.684-13.439 4.455-11.088-3.691-19.05-13.43-24.584-24.275-8.464 1.469-15.988 1.934-21.635 1.934h-9.942c7.98 21.906 22.751 43.178 48.617 49.762 3.496 8.13 11.571 13.832 20.983 13.832zM459.435 252.937l-46.711-46.72c-8.575 2.186-34.87 19.142-42.729 27.346l62.16 62.16c8.148-7.795 24.927-33.829 27.28-42.786zM370.692 270.432c1.19 0 2.382-.456 3.293-1.358l6.576-6.576c.418-.418.707-.902.93-1.404.763-1.711.465-3.767-.93-5.171-1.396-1.405-3.46-1.693-5.172-.93-.502.223-.985.521-1.404.93l-6.585 6.566c-1.814 1.814-1.814 4.762 0 6.576.911.912 2.101 1.367 3.292 1.367zM350.954 290.16c1.19 0 2.382-.456 3.293-1.358l6.576-6.576c1.813-1.813 1.813-4.762 0-6.576s-4.763-1.814-6.576 0l-6.576 6.576c-1.813 1.814-1.813 4.762 0 6.576.912.912 2.093 1.358 3.283 1.358zM331.227 309.897c1.19 0 2.381-.456 3.293-1.358l6.575-6.576c1.814-1.814 1.814-4.762 0-6.576-1.813-1.814-4.762-1.814-6.575 0l-6.576 6.576c-1.814 1.814-1.814 4.762 0 6.576.902.902 2.092 1.358 3.283 1.358zM394.633 274.236c.763-1.711.475-3.776-.93-5.171-1.404-1.405-3.46-1.693-5.172-.93-.502.223-.985.521-1.404.93l-6.576 6.585c-1.813 1.813-1.813 4.762 0 6.576.912.912 2.103 1.358 3.293 1.358s2.381-.456 3.293-1.358l6.575-6.585c.409-.41.698-.893.921-1.405zM373.975 288.802c-1.813-1.814-4.762-1.814-6.575 0l-6.576 6.576c-1.813 1.814-1.813 4.763 0 6.576.911.912 2.102 1.358 3.292 1.358 1.191 0 2.382-.456 3.293-1.358l6.576-6.576c1.804-1.814 1.804-4.762-.01-6.576zM354.247 308.53c-1.813-1.814-4.763-1.814-6.576 0l-6.576 6.585c-1.813 1.814-1.813 4.762 0 6.576.912.912 2.103 1.358 3.293 1.358s2.381-.456 3.293-1.358l6.576-6.585c1.804-1.814 1.804-4.762-.01-6.576zM396.996 296.736c1.19 0 2.381-.456 3.292-1.358l6.576-6.576c.419-.418.707-.902.93-1.405.763-1.711.466-3.767-.93-5.171-1.396-1.404-3.46-1.693-5.172-.93-.502.224-.995.521-1.404.93l-6.576 6.576c-1.813 1.813-1.813 4.762 0 6.576.903.912 2.093 1.358 3.284 1.358zM377.268 316.474c1.19 0 2.381-.456 3.293-1.358l6.576-6.576c1.813-1.814 1.813-4.762 0-6.576-1.814-1.814-4.763-1.814-6.576 0l-6.576 6.576c-1.813 1.813-1.813 4.762 0 6.576.902.902 2.092 1.358 3.283 1.358zM357.531 336.201c1.19 0 2.381-.456 3.293-1.358l6.576-6.576c1.813-1.814 1.813-4.763 0-6.576-1.814-1.814-4.763-1.814-6.576 0l-6.576 6.576c-1.813 1.813-1.813 4.762 0 6.576.91.903 2.102 1.358 3.283 1.358zM567.376 393.042h-27.903v-213.93c0-5.134-4.158-9.301-9.302-9.301h-40.404c-2.335 0-4.586.875-6.307 2.456l-33.429 30.778c-7.599-1.925-16.268.67-21.616 2.846l31.94 31.95c2.307-5.953 4.446-14.083 2.633-21.43l30.415-27.997h27.467v204.628h-483.665c-10.278 0-18.603 8.324-18.603 18.602v18.602c0 10.279 8.324 18.604 18.603 18.604h11.57c1.414 7.199 3.237 15.477 5.544 25.02l13.021 62.393c18.221 67.436 55.119 78.383 98.845 79.797 4.231.129 8.511.213 12.863.213h16.752l228.429.01-.037-.131.037.121h12.966c5.274 0 11.32-.334 17.803-1.293 28.602-4.213 65.751-20.527 83.107-73.805l21.16-92.324h8.11c.502 0 .968-.111 1.46-.148 9.581-.754 17.143-8.68 17.143-18.455v-18.602c.001-10.28-8.323-18.604-18.602-18.604zm-148.261 194.368l.019.176-.019-.176z"/></svg>