<svg fill="#fff" xmlns="http://www.w3.org/2000/svg" width="135.572" height="114.716" viewBox="40.214 15.641 135.572 114.716" enable-background="new 40.214 15.641 135.572 114.716"><path d="M144.499 119.93c0 2.879 1.021 5.336 3.056 7.372 2.036 2.037 4.495 3.056 7.375 3.056 2.877 0 5.336-1.019 7.372-3.056 2.037-2.036 3.056-4.493 3.056-7.372 0-2.88-1.018-5.338-3.056-7.375-2.036-2.035-4.495-3.055-7.372-3.055-2.88 0-5.339 1.02-7.375 3.055-2.035 2.037-3.056 4.495-3.056 7.375zM174.238 27.617c-1.033-1.032-2.254-1.548-3.666-1.548h-97.85c-.055-.38-.177-1.072-.367-2.077s-.339-1.806-.448-2.404c-.109-.596-.312-1.316-.611-2.158-.299-.842-.652-1.508-1.059-1.996-.407-.49-.95-.91-1.629-1.264-.679-.352-1.453-.529-2.322-.529h-20.857c-1.413 0-2.635.517-3.667 1.548-1.032 1.032-1.548 2.255-1.548 3.667s.516 2.634 1.548 3.666c1.033 1.032 2.255 1.548 3.667 1.548h16.619l14.42 67.053c-.108.217-.665 1.249-1.67 3.096-1.005 1.848-1.806 3.463-2.403 4.848-.597 1.387-.896 2.459-.896 3.22 0 1.412.516 2.635 1.548 3.667 1.033 1.029 2.255 1.548 3.667 1.548h83.426c1.411 0 2.635-.519 3.666-1.548 1.032-1.032 1.549-2.255 1.549-3.667s-.517-2.636-1.549-3.666c-1.031-1.032-2.255-1.55-3.666-1.55h-74.954c1.304-2.606 1.956-4.344 1.956-5.213 0-.545-.068-1.142-.204-1.793-.136-.65-.299-1.371-.489-2.159-.19-.786-.312-1.37-.366-1.75l85.06-9.94c1.357-.163 2.471-.746 3.34-1.751s1.304-2.159 1.304-3.463v-41.717c-.002-1.412-.517-2.634-1.549-3.668zM71.499 119.93c0 2.879 1.018 5.336 3.055 7.372 2.038 2.037 4.495 3.056 7.374 3.056 2.878 0 5.336-1.019 7.373-3.056 2.037-2.036 3.056-4.493 3.056-7.372 0-2.88-1.018-5.338-3.056-7.375-2.037-2.035-4.495-3.055-7.373-3.055-2.879 0-5.337 1.02-7.374 3.055-2.036 2.037-3.055 4.495-3.055 7.375z"/></svg>