<svg fill="#fff" xmlns="http://www.w3.org/2000/svg" width="30" height="22.886" viewBox="0 0 30 22.886"><path d="M30 14.739c0-2.682-1.878-5.024-4.674-6.291.165.585.26 1.189.277 1.809.28.166.549.345.802.54 1.41 1.088 2.187 2.487 2.187 3.942 0 1.454-.776 2.854-2.187 3.941-1.547 1.193-3.627 1.85-5.857 1.85-1.503 0-2.938-.3-4.188-.859-.777.153-1.584.25-2.414.284 1.704 1.282 4.033 2.073 6.602 2.073 1.649 0 3.199-.325 4.548-.898l3.441 1.756-.695-3.511c1.348-1.26 2.158-2.875 2.158-4.636zM24.624 9.276c-.018-.619-.112-1.224-.276-1.808-1.202-4.274-6.133-7.476-12.034-7.476-6.801.001-12.314 4.253-12.314 9.498 0 2.295 1.055 4.399 2.812 6.041l-.906 4.573 4.483-2.287c1.758.746 3.777 1.171 5.925 1.171l.653-.014c.829-.033 1.637-.13 2.415-.284 5.316-1.051 9.246-4.771 9.246-9.2l-.004-.214zm-4.679 5.35c-1.867 1.439-4.33 2.28-6.993 2.396l-.639.015c-.412 0-.819-.018-1.222-.052-2.438-.205-4.679-1.024-6.408-2.358-1.837-1.417-2.849-3.241-2.849-5.136s1.012-3.719 2.849-5.136c2.015-1.554 4.725-2.41 7.63-2.41 2.906 0 5.616.856 7.631 2.41.911.703 1.619 1.506 2.102 2.368.306.547.521 1.118.64 1.702.071.351.107.707.107 1.065 0 1.895-1.011 3.719-2.848 5.136z"/><g fill-rule="evenodd" clip-rule="evenodd"><circle cx="16.682" cy="9.519" r="1.347"/><circle cx="12.314" cy="9.519" r="1.347"/><circle cx="7.946" cy="9.519" r="1.348"/></g></svg>