<svg fill="#fff" xmlns="http://www.w3.org/2000/svg" width="557.76" height="560.67" viewBox="23.314 137.368 557.76 560.67" enable-background="new 23.314 137.368 557.76 560.67"><path d="M78.714 599.55l-20.424 20.424 43.089 43.09 20.424-20.424c18.892 13 40.596 22.186 64.014 26.508v28.891h60.938v-28.891c23.416-4.322 45.12-13.508 64.011-26.508l20.424 20.424 43.09-43.09-20.425-20.424c13.001-18.895 22.187-40.596 26.508-64.014h28.893v-60.939h-28.893c-4.321-23.414-13.507-45.119-26.508-64.013l20.425-20.424-43.09-43.089-20.424 20.424c-18.891-13-40.595-22.186-64.011-26.508v-28.892h-60.938v28.892c-23.415 4.322-45.119 13.507-64.014 26.508l-20.424-20.424-43.089 43.092 20.424 20.424c-13.001 18.895-22.187 40.596-26.508 64.014h-28.892v60.938h28.893c4.324 23.416 13.509 45.121 26.507 64.011zm137.572-217.709c68.059 0 123.229 55.17 123.229 123.229s-55.17 123.229-123.229 123.229-123.229-55.171-123.229-123.229c-.003-68.059 55.171-123.229 123.229-123.229zM562.334 246.858l18.171-7.748-19.18-44.964-18.168 7.75c-7.819-11.001-17.403-20.389-28.559-27.972l7.369-18.323-45.352-18.234-7.369 18.323c-13.218-2.224-26.806-2.081-39.97.419l-7.751-18.171-44.965 19.174 7.751 18.171c-11.001 7.816-20.389 17.4-27.973 28.556l-18.322-7.37-18.236 45.354 18.322 7.367c-2.247 13.301-2.104 26.716.423 39.973l-18.168 7.748 19.174 44.964 18.168-7.75c7.816 10.998 17.4 20.385 28.556 27.972l-7.366 18.323 45.352 18.233 7.366-18.323c13.215 2.22 26.806 2.081 39.973-.419l7.751 18.171 44.965-19.174-7.751-18.171c11.001-7.819 20.389-17.4 27.973-28.556l18.322 7.37 18.233-45.354-18.319-7.367c2.247-13.3 2.105-26.715-.42-39.972zm-81.961 91.367c-9.552 4.075-19.614 6.14-29.907 6.14-30.651 0-58.225-18.219-70.252-46.408-16.51-38.717 1.554-83.646 40.271-100.156 9.552-4.075 19.611-6.14 29.904-6.14 30.654 0 58.228 18.218 70.252 46.408 16.51 38.714-1.554 83.646-40.268 100.156z"/></svg>