<svg fill="#ff8a00" xmlns="http://www.w3.org/2000/svg" width="170.115" height="170.004" viewBox="52.11 44.996 170.115 170.004" enable-background="new 52.11 44.996 170.115 170.004"><path d="M218.88 121.83l-8.489-8.49 3.979-11.31c2.11-5.95-1.021-12.52-6.99-14.65l-6.7-2.36v-7.11c0-6.33-5.15-11.47-11.459-11.47h-12.011l-5.17-10.82c-2.64-5.53-9.75-8.07-15.31-5.42l-6.431 3.08-5.01-5.021c-4.319-4.34-11.87-4.36-16.22-.01l-8.5 8.49-11.3-3.98c-5.82-2.1-12.59 1.16-14.66 6.97l-2.36 6.71h-7.11c-6.32 0-11.47 5.15-11.47 11.47v12l-10.85 5.18c-5.69 2.73-8.11 9.59-5.38 15.3l3.07 6.41-5.03 5.03c-2.18 2.17-3.37 5.05-3.37 8.13 0 3.07 1.2 5.94 3.36 8.09l8.49 8.5-4 11.33c-1.02 2.87-.85 5.979.47 8.75 1.32 2.771 3.64 4.86 6.53 5.88l6.7 2.36v7.11c0 6.33 5.15 11.459 11.47 11.459h12.01l5.18 10.841c2.64 5.53 9.76 8.05 15.29 5.409l6.42-3.09 5.03 5.041c2.17 2.17 5.049 3.359 8.12 3.359s5.95-1.189 8.1-3.359l8.5-8.48 11.33 3.98c5.83 2.069 12.591-1.19 14.631-6.99l2.369-6.721h7.121c6.319 0 11.459-5.14 11.459-11.459v-11.99l10.83-5.181c5.69-2.729 8.131-9.59 5.4-15.31l-3.07-6.41 5.03-5.04c4.461-4.448 4.461-11.728.001-16.208zm-13.409 32.231l-17.08 8.159v18.931h-14.98l-5 14.14-17.841-6.291-13.391 13.359-10.62-10.59-13.48 6.521-8.19-17.149h-18.929v-14.98l-14.13-5 6.3-17.83-13.38-13.4 10.6-10.6-6.47-13.52 17.08-8.16v-18.921h14.99l5-14.13 17.85 6.3 13.38-13.38 10.61 10.59 13.489-6.53 8.201 17.15h18.93v14.99l14.13 4.99-6.3 17.86 13.39 13.38-10.63 10.6 6.471 13.511zM162.75 120.77c-11.561 0-18.96 9.17-18.96 21.26.101 12.71 8.229 20.409 18.45 20.409 9.789 0 18.75-7.379 18.75-21.56 0-11.559-6.57-20.109-18.24-20.109zm-.2 33.041c-4.59 0-6.979-5.121-6.88-12.19 0-6.78 2.09-12.2 6.88-12.2 4.89 0 6.66 5.311 6.66 12.2 0 7.599-2.19 12.19-6.66 12.19zM153.16 92.64l-38.86 70.02h8.43l38.98-70.02zM132.23 112.75c0-11.57-6.57-20.11-18.241-20.11-11.56 0-18.96 9.17-18.96 21.26 0 12.71 8.13 20.42 18.45 20.42 9.781 0 18.751-7.4 18.751-21.57zm-18.45 12.92c-4.59 0-6.98-5.1-6.98-12.19 0-6.78 2.19-12.19 6.88-12.19 4.9 0 6.78 5.31 6.78 12.19-.01 7.6-2.2 12.19-6.68 12.19z"/></svg>