<svg fill="#fff" xmlns="http://www.w3.org/2000/svg" width="23.992" height="21.062" viewBox="0 0.004 23.992 21.062" enable-background="new 0 0.004 23.992 21.062"><path d="M23.992 9.051v12.014h-16.261v-6.275l4.734-5.738h2.079v11.604h2.751v-11.605h6.697zm-15.539 4.062l-4.352 5.243-2.923-2.432 4.017-4.838c-.61.152-1.388.183-2.213.045-1.781-.29-3.111-1.219-2.972-2.077.025-.149.09-.283.19-.405.49-.588 1.814-.864 3.29-.625.496.081.951.216 1.356.382-.237-.366-.452-.792-.625-1.263-.507-1.409-.48-2.76.009-3.35.102-.122.222-.211.363-.261.818-.296 1.978.84 2.592 2.537.283.787.4 1.554.363 2.182l4.017-4.838 2.925 2.428-4.278 5.151-2.958-2.453-1.758 2.119 2.957 2.455zm-3.389-6.275c.141.387.32.75.535 1.081l.552.854.372.045c.154-.246.277-1.177-.18-2.443-.474-1.308-1.182-1.918-1.44-1.985-.174.252-.296 1.183.161 2.448zm.492 3.128l-.119-.353-.928-.378c-.371-.151-.761-.262-1.162-.326-1.327-.218-2.221.076-2.439.292.115.242.846.824 2.219 1.049 1.309.213 2.196-.068 2.429-.284zm14.653-3.511c.123-.172.335-.262.52-.262l.056.002c.215.024.363.095.458.221.094.123.124.291.089.5-.083.507-1.016 1.326-1.057 1.359l-.063.021-.062-.02c-.041-.034-.981-.853-1.065-1.36-.033-.209-.003-.377.091-.5.096-.126.246-.198.463-.221l.053-.002c.184 0 .393.09.517.262zm.469-.079c.484.073.522.618.522.618.062-.702-.522-.618-.522-.618zm-5.045.5c.083-.108.219-.172.407-.191l.047-.002c.165 0 .351.077.46.229.107-.151.295-.229.46-.229l.046.002c.191.02.324.083.408.191.084.109.109.259.08.444-.074.449-.9 1.172-.934 1.201l-.06.02-.056-.018c-.034-.031-.868-.754-.941-1.203-.029-.185-.002-.335.083-.444zm1.328-.033c.43.065.461.55.461.55.055-.627-.461-.55-.461-.55zm-.333-3.982c-.058-.347-.007-.63.149-.835.158-.207.412-.328.77-.365l.092-.005c.31 0 .66.151.866.434.204-.282.558-.434.868-.434l.09.005c.357.037.61.158.768.365.158.205.209.488.151.835-.14.852-1.698 2.213-1.765 2.271l-.107.04-.105-.04c-.067-.058-1.637-1.419-1.777-2.271zm2.658-.898c.81.121.868 1.031.868 1.031.104-1.173-.867-1.031-.868-1.031zm-4.989-.357l-.066-.067-.066.067.066.065.066-.065zm1.437-.024h-1.332v.046h1.332v-.046zm-1.526 1.484h.045v-1.332h-.045v1.332zm.045-2.982h-.045v1.329h.045v-1.329zm-.166 1.634l-.942.939.033.034.943-.939-.034-.034zm1.229.94l-.939-.94-.033.033.939.939.033-.032zm-1.25-1.051h-1.33v.046h1.33v-.046zm1.23-1.004l-.034-.032-.92.962.034.032.92-.962zm-.235-.577l-.039-.022-.647 1.166.039.022.647-1.166zm-.938 1.172l-.629-1.173-.041.021.63 1.172.04-.02zm-.316.234l-1.274-.387-.013.045 1.273.387.014-.045zm2.077.7l-1.274-.384-.014.044 1.275.384.013-.044zm-1.171-.672l1.174-.63-.021-.039-1.175.63.022.039zm-2.079.963l1.175-.63-.022-.041-1.173.63.02.041zm1.02.89l.423-1.262-.044-.015-.424 1.261.045.016zm1.123.005l.045-.014-.396-1.271-.044.014.395 1.271zm-.66-1.794l-.94-.941-.032.032.94.941.032-.032zm7.765 2.386l-.032-.033-.033.033.033.033.032-.033zm.712-.012h-.658v.022h.658v-.022zm-.755.735h.021v-.658h-.021v.658zm.02-1.477h-.021v.659h.021v-.659zm-.084.81l-.464.464.016.016.466-.465-.018-.015zm.612.464l-.465-.467-.016.017.465.466.016-.016zm-.619-.519h-.66v.021h.66v-.021zm.613-.493l-.016-.015-.467.466.016.016.467-.467zm-.104-.28l-.021-.014-.354.559.021.013.354-.558zm-.482.57l-.311-.581-.021.012.313.58.019-.011zm-.158.115l-.63-.191-.007.022.629.19.008-.021zm1.033.349l-.633-.192-.008.021.633.192.008-.021zm-.582-.335l.582-.311-.012-.022-.582.312.012.021zm-1.029.477l.582-.313-.012-.021-.582.312.012.022zm.504.441l.211-.624-.021-.008-.21.625.02.007zm.555.004l.022-.007-.192-.631-.022.007.192.631zm-.325-.89l-.467-.466-.016.016.467.466.016-.016z"/></svg>