<svg fill="#fff" xmlns="http://www.w3.org/2000/svg" width="770.399" height="640.1" viewBox="14.8 89.5 770.399 640.1" enable-background="new 14.8 89.5 770.399 640.1"><path d="M785.199 406.3l-42.8 52-342.399-281.6-342.4 281.6-42.8-52 385.2-316.8 385.199 316.8zm-385.099-164.7l248.4 206v282h-497.1v-282.8l248.7-205.2zm20.3 217.4c-1.726 1.266-20.4 18-20.4 18s-18.699-16.801-20.4-18c-25.283-17.824-52.5-19-73.3-8.1-20.5 9.898-32.8 31.698-34.3 56.8-.101.898-.101 1.8-.101 2.7-.3 19.1 7.2 36.8 18 52.5 4.801 7 9.9 13.6 15.2 20 7.8 9.898 94.85 91.767 94.85 91.767s87.151-81.967 94.951-91.767c5.3-6.4 10.399-13.102 15.199-20 10.801-15.802 18.301-33.4 18-52.5 0-.9 0-1.802-.101-2.7-1.5-25.102-13.8-47-34.3-56.8-20.798-10.9-48.354-10.196-73.298 8.1z"/></svg>