<svg fill="#fff" xmlns="http://www.w3.org/2000/svg" width="37" height="32" viewBox="0 0 37 32"><path d="M36.14 15.308l-4.522-4.075v-6.23c0-1.129-.842-2.046-1.877-2.046h-3.051c-1.035 0-1.877.917-1.877 2.046v.101l-5.141-4.63c-.694-.625-1.697-.625-2.392 0l-16.619 14.972c-.61.55-.836 1.457-.57 2.271.268.812.975 1.352 1.768 1.352h3.571v10.882c0 1.129.841 2.046 1.877 2.046h6.165c1.036 0 1.877-.917 1.877-2.046v-5.769c0-1.88 1.404-3.409 3.129-3.409 1.724 0 3.128 1.529 3.128 3.409v5.769c0 1.129.841 2.046 1.877 2.046h6.165c1.035 0 1.877-.917 1.877-2.046v-10.026c.055-.191.092-.39.092-.601v-.255h3.498c1.037 0 1.877-.916 1.877-2.046 0-.717-.339-1.349-.852-1.715z"/></svg>