<svg fill="#fff" xmlns="http://www.w3.org/2000/svg" width="299.028" height="412.326" viewBox="106.486 49.837 299.028 412.326" enable-background="new 106.486 49.837 299.028 412.326"><path d="M372.553 122.454h22.961c5.522 0 10-4.478 10-10v-52.617c0-5.522-4.478-10-10-10h-279.028c-5.522 0-10 4.478-10 10v52.617c0 5.522 4.478 10 10 10h22.961c9.27 62.04 38.201 112.225 75.94 133.546-37.741 21.318-66.672 71.504-75.94 133.546h-22.961c-5.522 0-10 4.478-10 10v52.617c0 5.521 4.478 10 10 10h279.028c5.522 0 10-4.479 10-10v-52.617c0-5.522-4.478-10-10-10h-22.962c-9.27-62.04-38.201-112.226-75.941-133.545 37.741-21.319 66.672-71.505 75.942-133.547zm-98.984 170.285c36.619 46.604 50.171 69.167 55.092 79.889 1.42 3.097 1.167 6.702-.671 9.569s-5.011 4.602-8.417 4.602h-127.145c-3.406 0-6.579-1.734-8.417-4.602-1.838-2.868-2.092-6.475-.671-9.569 4.92-10.721 18.472-33.282 55.093-79.894l1.069-1.358v-61.099l-1.346-1.44c-20.329-21.785-35.889-39.178-46.245-51.695-3.005-3.632-3.065-8.869-.146-12.569 2.919-3.7 8.027-4.858 12.257-2.782 13.722 6.735 33.876 14.765 51.979 14.765 18.255 0 38.292-7.972 51.886-14.659 4.231-2.085 9.342-.925 12.263 2.776 2.922 3.702 2.861 8.941-.146 12.573-10.364 12.518-25.895 29.874-46.158 51.588l-1.345 1.44v61.106l1.068 1.359z"/></svg>