<svg xmlns="http://www.w3.org/2000/svg" width="609.563" height="609.563" viewBox="2.438 91.219 609.563 609.563" enable-background="new 2.438 91.219 609.563 609.563"><path d="M306.609 296.032c16.66 0 30.782 5.791 42.363 17.373 11.582 11.582 17.373 25.703 17.373 42.365 0 16.661-5.791 30.783-17.373 42.365-11.581 11.581-25.703 17.372-42.363 17.372-16.661 0-30.782-5.791-42.363-17.372-11.582-11.582-17.373-25.704-17.373-42.365 0-16.662 5.791-30.783 17.373-42.365 11.581-11.582 25.702-17.373 42.363-17.373zm148.734 60.956c0-20.319-3.859-39.418-11.582-57.299-7.722-17.881-18.287-33.526-31.696-46.937-13.41-13.411-29.057-24.078-46.937-32.002-17.882-7.924-36.979-11.886-57.3-11.886h-1.217c-20.317 0-39.418 3.962-57.299 11.886-17.88 7.924-33.525 18.592-46.936 32.002s-23.977 29.056-31.697 46.937c-7.721 17.88-11.582 36.98-11.582 57.299v4.266c0 .813.203 1.422.609 1.829 0 8.127 1.016 16.865 3.048 26.211.813 5.689 3.657 13.815 8.534 24.384 4.877 10.564 10.769 22.146 17.678 34.743 6.908 12.598 14.325 25.703 22.249 39.317 7.924 13.611 15.543 26.211 22.857 37.793 7.314 11.581 13.817 21.537 19.507 29.868 5.688 8.33 9.753 13.715 12.19 16.151 3.251 3.251 7.01 6.705 11.277 10.362 4.267 3.657 8.432 6.908 12.496 9.753 4.063 2.845 7.721 5.08 10.972 6.706 3.251 1.625 5.485 2.438 6.705 2.438 1.221 0 3.354-.812 6.399-2.438 3.048-1.626 6.604-3.76 10.668-6.4 4.063-2.642 8.229-5.791 12.496-9.447 4.268-3.657 8.229-7.314 11.887-10.974 2.438-2.438 6.502-7.821 12.19-16.151 5.688-8.331 12.19-18.391 19.506-30.175 7.314-11.784 14.936-24.383 22.857-37.793 7.926-13.411 15.342-26.517 22.249-39.315 6.909-12.803 12.699-24.382 17.373-34.745 4.673-10.362 7.619-18.388 8.839-24.077.812-4.47 1.423-8.839 1.828-13.105.405-4.267.812-8.636 1.221-13.106v-1.829c0-.812.102-1.422.305-1.829.203-.407.306-1.016.306-1.829v-.608zm-148.124-265.769c41.856 0 81.377 8.026 118.562 24.078 37.184 16.052 69.488 37.793 96.92 65.223s49.171 59.737 65.224 96.92c16.049 37.184 24.075 76.704 24.075 118.56 0 28.04-3.657 55.062-10.973 81.071-7.314 26.009-17.576 50.289-30.783 72.843s-29.056 43.076-47.546 61.565c-18.489 18.488-39.013 34.339-61.564 47.547-22.555 13.207-46.835 23.468-72.844 30.78-26.008 7.314-53.031 10.975-81.071 10.975s-55.063-3.658-81.071-10.975c-26.008-7.313-50.289-17.573-72.843-30.78-22.554-13.208-43.076-29.059-61.565-47.547-18.489-18.489-34.339-39.014-47.546-61.565-13.208-22.554-23.469-46.834-30.784-72.843-7.314-26.009-10.972-53.031-10.972-81.071s3.657-55.063 10.973-81.072c7.314-26.008 17.575-50.289 30.782-72.842 13.207-22.554 29.056-43.076 47.546-61.566 18.49-18.49 39.013-34.339 61.565-47.546s46.835-23.468 72.843-30.783 53.032-10.972 81.072-10.972z"/></svg>