<svg xmlns="http://www.w3.org/2000/svg" width="25" height="15" viewBox="12.499 17.5 25 15" enable-background="new 12.499 17.5 25 15"><path d="M14.215 18.529l9.07 5.442c.943.566 2.486.566 3.43 0l9.07-5.442c.944-.566.815-1.029-.285-1.029h-21c-1.1 0-1.228.463-.285 1.029zM37.23 18.518c-.164.281-.446.577-.932.868l-8.574 5.146 6.174 3.41c.242.133.33.438.197.679-.092.165-.263.258-.438.258-.082 0-.165-.021-.241-.063l-6.742-3.723c-.503.194-1.078.302-1.674.302-.596 0-1.171-.108-1.674-.302l-6.742 3.723c-.077.043-.16.063-.241.063-.176 0-.347-.093-.438-.258-.134-.242-.046-.546.196-.679l6.174-3.41-8.575-5.146c-.485-.291-.768-.587-.931-.868-.167.292-.27.624-.27.982v11c0 1.1.9 2 2 2h21c1.101 0 2-.9 2-2v-11c.001-.358-.103-.69-.269-.982z"/></svg>