<svg xmlns="http://www.w3.org/2000/svg" xmlns:xlink="http://www.w3.org/1999/xlink" width="46" height="192" viewBox="0 0 16.853 70.128">
<path id="medal" d="M12.292 8.058c0 2.132-1.73 3.861-3.868 3.861-2.132 0-3.856-1.729-3.856-3.861s1.726-3.865 3.856-3.865c2.137-.001 3.868 1.733 3.868 3.865zM13.033 12.944l2.516-.479-.607-2.259 1.911-1.508-1.694-1.807.917-2.461-2.566-.696-.477-2.604-2.565.975-1.867-2.105-1.74 1.955-2.646-1.035-.566 2.587-2.606.705.827 2.233-1.87 1.807 1.87 1.608-.65 2.324 2.43.583.23.943-2.922 8.211 3.215-.833 2.433 2.288 1.819-6.589 2.002 6.589 2.17-2.086 3.559.148-3.303-7.768.18-.726zm-9.424-4.886c0-2.662 2.16-4.821 4.814-4.821 2.665 0 4.822 2.16 4.822 4.821 0 2.661-2.157 4.818-4.822 4.818-2.653 0-4.814-2.157-4.814-4.818zm2.663 13.668l-1.858-1.924-2.12.743 1.923-5.188 1.196-.555.944-.381 1.49 1.534-1.575 5.771zm6.168-1.357l-1.621 1.532-1.793-6.033 1.224-1.27 2.405.756 2.361 5.278-2.576-.263z"/>
<use fill="#79cf60" x="0" y="23.376" xlink:href="#medal" />
<use fill="#007bae" x="0" y="46.752" xlink:href="#medal" />
</svg>