<svg xmlns="http://www.w3.org/2000/svg" width="32" height="27" viewBox="0 0 32 27"><path fill="#fff" d="M29.412 10.929h-26.829c-1.427 0-2.586 1.152-2.586 2.571s1.159 2.571 2.586 2.571h26.829c1.428 0 2.586-1.152 2.586-2.571s-1.156-2.571-2.586-2.571zm-26.829-5.785h26.829c1.428 0 2.586-1.152 2.586-2.571s-1.158-2.571-2.586-2.571h-26.829c-1.427 0-2.586 1.152-2.586 2.571s1.159 2.571 2.586 2.571zm26.829 16.712h-26.829c-1.427 0-2.586 1.152-2.586 2.571s1.159 2.571 2.586 2.571h26.829c1.428 0 2.586-1.152 2.586-2.571s-1.156-2.571-2.586-2.571z"/></svg>