<svg xmlns="http://www.w3.org/2000/svg" width="26" height="26" viewBox="0 0 26 26"><path fill="none" d="M0 0h26v26h-26z"/><path d="M22.387 18.025c-1.549-1.323-3.119-2.125-4.648-.803l-.913.799c-.668.58-1.91 3.289-6.712-2.234-4.802-5.517-1.945-6.376-1.276-6.951l.918-.8c1.521-1.325.947-2.993-.15-4.71l-.662-1.04c-1.102-1.713-2.302-2.838-3.827-1.515l-.824.72c-.674.491-2.558 2.087-3.015 5.119-.55 3.638 1.185 7.804 5.16 12.375 3.97 4.574 7.857 6.871 11.539 6.83 3.061-.032 4.908-1.674 5.486-2.271l.827-.721c1.521-1.322.576-2.668-.974-3.995l-.929-.803z"/></svg>