<svg xmlns="http://www.w3.org/2000/svg" width="612" height="612" viewBox="0 90 612 612" enable-background="new 0 90 612 612"><path fill="#FFF" d="M478.584 501.876c4.487-4.488 6.119-9.384 4.896-14.688-.408-2.446-1.43-4.69-3.062-6.73-1.633-2.04-3.469-3.876-5.509-5.508l-72.216-42.229-.612-.609c-2.447-1.227-5.712-1.836-9.792-1.836-6.527 0-11.628 2.039-15.3 6.117l-21.42 21.422c-1.226 1.225-2.855 1.837-4.896 1.837-4.896-.816-10.813-3.063-17.748-6.732-5.712-3.264-12.954-7.854-21.727-13.771-8.771-5.916-18.869-14.587-30.294-26.012-8.159-8.565-15.708-17.136-22.644-25.704-5.712-6.936-11.016-14.484-15.912-22.644-4.896-8.16-7.548-15.3-7.956-21.42 0-2.04.612-3.672 1.836-4.896l18.36-18.36c3.264-3.264 5.304-7.242 6.12-11.934.815-4.692.204-9.078-1.836-13.158l-39.78-74.664c-3.264-6.528-8.16-9.792-14.688-9.792-4.079 0-8.159 1.632-12.239 4.896l-48.96 49.572c-2.448 2.04-4.59 4.998-6.427 8.874-1.836 3.876-2.958 7.446-3.365 10.71v15.3s2.651 12.648 7.956 37.944c5.304 25.296 14.586 44.268 27.846 56.916 13.26 12.647 32.742 36.516 58.446 71.604 22.031 22.032 42.636 39.372 61.812 52.021 19.176 12.646 36.414 22.134 51.714 28.458 15.3 6.321 28.254 10.302 38.86 11.934 10.607 1.632 18.155 2.448 22.646 2.448 2.04 0 3.672-.104 4.896-.308 1.226-.202 2.04-.307 2.447-.307 3.265-.408 6.731-1.53 10.404-3.366 3.672-1.836 6.73-3.978 9.18-6.426l48.964-48.959zm-172.584-411.876c42.023 0 81.701 8.058 119.033 24.174 37.332 16.116 69.769 37.944 97.309 65.484s49.367 59.976 65.483 97.308 24.175 77.01 24.175 119.034c0 28.152-3.673 55.284-11.017 81.396-7.346 26.11-17.646 50.488-30.906 73.135-13.26 22.644-29.172 43.248-47.735 61.812s-39.168 34.479-61.813 47.736c-22.646 13.26-47.021 23.562-73.135 30.906-26.111 7.343-53.242 11.015-81.394 11.015-28.152 0-55.284-3.672-81.396-11.016-26.111-7.347-50.49-17.646-73.134-30.906s-43.248-29.172-61.812-47.736c-18.564-18.562-34.477-39.168-47.736-61.812-13.26-22.646-23.563-47.022-30.906-73.135-7.344-26.111-11.016-53.243-11.016-81.395 0-28.152 3.672-55.284 11.016-81.396s17.646-50.49 30.906-73.134c13.26-22.644 29.172-43.248 47.736-61.812 18.563-18.564 39.168-34.476 61.812-47.736 22.644-13.26 47.022-23.562 73.134-30.906 26.112-7.344 53.244-11.016 81.396-11.016z"/></svg>