<svg fill="#fff" xmlns="http://www.w3.org/2000/svg" width="32" height="23.031" viewBox="0 0 32 23.031"><path d="M16.435 0c-6.361 0-11.516 5.156-11.516 11.516s5.155 11.516 11.516 11.516c6.359 0 11.516-5.155 11.516-11.516-.001-6.36-5.157-11.516-11.516-11.516zm-.127 18.895c-3.993 0-7.229-3.236-7.229-7.229s3.236-7.229 7.229-7.229c3.992 0 7.229 3.236 7.229 7.229s-3.237 7.229-7.229 7.229zM3.691 2.046h-.483l.144 5.06h-.58v-5.06h-.425v5.091h-.48v-5.091l-.469.001v5.091h-.57l.163-5.092h-.442l-.535 4.307-.014.224c0 .663.309 1.257.79 1.643 1.586 1.791.503 3.619.504 4.053.001.48.001 7.877.001 7.877l-.001.017c.001.453.367.82.82.82s.821-.369.821-.82l-.003-.017.002.001s0-7.305.001-7.861c0-.506-.915-2.606.614-4.169l.007-.009c.373-.354.62-.842.656-1.39l.002-.136-.523-4.54zM31.999 14.26c.001-.488-.014-12.213-.014-12.213l-.268-.001s-2.182 1.231-2.182 10.366c1.676.46.971 2.292.844 2.525 0 .465.036 5.242.036 5.242l.006-.002-.004.016c-.002.439.354.795.791.792.436.001.793-.355.791-.792v-.014l.001-.003s0-5.38-.001-5.916z"/></svg>