<svg xmlns="http://www.w3.org/2000/svg" width="35.532" height="31.924" viewBox="2.066 0 35.532 31.924" enable-background="new 2.066 0 35.532 31.924"><path fill="#fff" d="M32.601 3.102c-.254-1.391-5.521-1.607-12.171-.604-.367-1.6-1.601-2.693-2.827-2.469-1.229.23-1.99 1.693-1.761 3.318-6.47 1.426-11.216 3.477-10.961 4.852.282 1.539 28.002-3.558 27.72-5.097zm3.958 3.589l1.039-.979c-.06-.064-1.494-1.545-4.179-1.221-1.355.164-3.912 2.447-7.186 5.713h-19.931v1.287c-.535-.094-1.693-.519-3.041-1.83l-1.195 1.227c1.695 1.655 3.088 2.715 4.236 3.219v14.391c0 1.896 1.537 3.426 3.43 3.426h18.558c1.893 0 3.43-1.53 3.43-3.426v-14.391c1.148-.504 2.541-1.564 4.236-3.219l-1.195-1.227c-1.348 1.311-2.158 1.576-3.041 1.83v-1.287h-3.443c2.219-2.162 4.486-4.191 5.314-4.295 1.941-.233 2.931.749 2.968.782z"/></svg>