<svg fill="#fff" xmlns="http://www.w3.org/2000/svg" width="595.263" height="354.719" viewBox="0.008 262.466 595.263 354.719" enable-background="new 0.008 262.466 595.263 354.719"><path d="M384.94 404.728l-63.716-110.387c-17.59-30.477-56.557-40.941-87.034-23.303l-202.317 116.838c-30.477 17.59-40.909 56.542-23.319 87.067l63.716 110.387c17.59 30.445 56.557 40.924 87.034 23.287l202.316-116.838c30.477-17.59 40.91-56.574 23.32-87.051zm-77.454 56.99l-147.154 84.98c-20.318 11.732-46.302 4.75-58.018-15.52l-31.858-55.208c-11.732-20.352-4.767-46.334 15.551-58.05l147.14-84.997c20.318-11.732 46.302-4.783 58.018 15.552l31.857 55.193c11.731 20.318 4.782 46.318-15.536 58.05zm255.536-74.998l-164.007-93.214c-8.218 5.97-16.29 14.926-15.793 26.882.466 11.283 6.035 22.774 11.893 31.986l113.981 64.774c20.398 11.571 27.54 37.54 15.953 57.938l-31.473 55.385c-11.588 20.416-37.523 27.541-57.922 15.938l-54.583-30.99c-6.5 2.342-13.369 6.049-18.344 12.084-7.175 8.715-10.031 22.438-11.187 32.227l85.574 48.645c30.59 17.383 69.493 6.645 86.874-23.961l62.945-110.818c17.399-30.608 6.678-69.527-23.911-86.876z"/></svg>