<svg fill="#fff" xmlns="http://www.w3.org/2000/svg" width="29.071" height="33.707" viewBox="10.465 8.147 29.071 33.707" enable-background="new 10.465 8.147 29.071 33.707"><path d="M12.356 31.838h3.351v3.35h-3.351v-3.35zm4.829 3.35h3.351v-3.35h-3.351v3.35zm-4.829 5.025h3.351v-3.35h-3.351v3.35zm4.829 0h3.351v-3.35h-3.351v3.35zm14.17-5.025h3.352v-3.35h-3.352v3.35zm4.831-3.35v3.35h3.351v-3.35h-3.351zm-4.831 8.375h3.352v-3.35h-3.352v3.35zm4.831 0h3.351v-3.35h-3.351v3.35zm-2.302-13.542l-6.429 4.297v10.886h-3.691v-10.886l-5.025-3.358c-2.416-.355-4.403-1.612-5.402-3.24-1.891-.884-3.092-2.901-2.838-5.089.29-2.487 2.365-4.313 4.798-4.387 1.063-4.279 5.155-7.207 9.65-6.686 3.368.393 6.067 2.62 7.231 5.568.441-.207.942-.307 1.463-.244 1.496.174 2.565 1.525 2.395 3.021-.027.236-.096.458-.18.671 1.857.897 3.033 2.895 2.783 5.061-.289 2.469-2.343 4.29-4.755 4.386zm-8.275 1.922l1.146-.766c-.987-.127-1.844-.591-2.495-1.25-.292.184-.608.343-.938.485l2.287 1.531z"/></svg>