<svg fill="#fff" xmlns="http://www.w3.org/2000/svg" width="131.052" height="130.881" viewBox="0 0 131.052 130.881"><path fill-rule="evenodd" clip-rule="evenodd" d="M129.76 114.005l-18.727-18.701c-1.725-1.722-4.52-1.722-6.242 0l-.506.505-8.805-8.793c-.216-.216-.453-.394-.702-.549 7.333-9.112 11.729-20.682 11.729-33.282.001-29.373-23.842-53.185-53.253-53.185s-53.254 23.812-53.254 53.185c0 29.374 23.843 53.186 53.254 53.186 12.617 0 24.201-4.392 33.326-11.714.155.248.333.485.549.701l8.804 8.793-.505.504c-1.724 1.722-1.724 4.513 0 6.234l18.726 18.701c1.725 1.722 4.519 1.722 6.242 0l9.364-9.351c1.722-1.72 1.722-4.512 0-6.234zm-76.506-28.12c-18.083 0-32.742-14.641-32.742-32.7s14.658-32.7 32.742-32.7c18.083 0 32.742 14.64 32.742 32.699s-14.659 32.701-32.742 32.701z"/></svg>