<?xml version="1.0" encoding="utf-8"?>
<!-- Generator: Adobe Illustrator 16.0.0, SVG Export Plug-In . SVG Version: 6.00 Build 0)  -->
<!DOCTYPE svg PUBLIC "-//W3C//DTD SVG 1.1//EN" "http://www.w3.org/Graphics/SVG/1.1/DTD/svg11.dtd">
<svg version="1.1" id="Layer_1" xmlns="http://www.w3.org/2000/svg" xmlns:xlink="http://www.w3.org/1999/xlink" x="0px" y="0px"
	 width="567.376px" height="519.354px" viewBox="18.603 169.811 567.376 519.354"
	 enable-background="new 18.603 169.811 567.376 519.354" xml:space="preserve">
<g>
	<path d="M140.43,676.404c24.993-4.957,42.098-27.531,51.836-50.832h-13.217c-5.637,0-11.217-0.111-16.732-0.361
		c-5.73,11.719-14.427,21.857-27.411,23.885c-4.009-3.469-9.162-5.637-14.882-5.637c-12.622,0-22.854,10.232-22.854,22.854
		s10.231,22.854,22.854,22.854C129.008,689.166,136.7,683.939,140.43,676.404z"/>
	<path d="M496.854,689.166c12.622,0,22.854-10.232,22.854-22.854s-10.231-22.854-22.854-22.854c-5.041,0-9.664,1.684-13.439,4.455
		c-11.088-3.691-19.05-13.43-24.584-24.275c-8.464,1.469-15.988,1.934-21.635,1.934h-1.497h-0.865h-7.58
		c7.98,21.906,22.751,43.178,48.617,49.762C479.367,683.464,487.442,689.166,496.854,689.166z"/>
	<path d="M459.435,252.937l-46.711-46.72c-8.575,2.186-34.87,19.142-42.729,27.346l62.16,62.16
		C440.303,287.928,457.082,261.894,459.435,252.937z"/>
	<path d="M370.692,270.432c1.19,0,2.382-0.456,3.293-1.358l6.576-6.576c0.418-0.418,0.707-0.902,0.93-1.404
		c0.763-1.711,0.465-3.767-0.93-5.171c-1.396-1.405-3.46-1.693-5.172-0.93c-0.502,0.223-0.985,0.521-1.404,0.93l-6.585,6.566
		c-1.814,1.814-1.814,4.762,0,6.576C368.311,269.977,369.501,270.432,370.692,270.432z"/>
	<path d="M350.954,290.16c1.19,0,2.382-0.456,3.293-1.358l6.576-6.576c1.813-1.813,1.813-4.762,0-6.576
		c-1.813-1.814-4.763-1.814-6.576,0l-6.576,6.576c-1.813,1.814-1.813,4.762,0,6.576C348.583,289.714,349.764,290.16,350.954,290.16z
		"/>
	<path d="M331.227,309.897c1.19,0,2.381-0.456,3.293-1.358l6.575-6.576c1.814-1.814,1.814-4.762,0-6.576
		c-1.813-1.814-4.762-1.814-6.575,0l-6.576,6.576c-1.814,1.814-1.814,4.762,0,6.576
		C328.846,309.441,330.036,309.897,331.227,309.897z"/>
	<path d="M394.633,274.236c0.763-1.711,0.475-3.776-0.93-5.171c-1.404-1.405-3.46-1.693-5.172-0.93
		c-0.502,0.223-0.985,0.521-1.404,0.93l-6.576,6.585c-1.813,1.813-1.813,4.762,0,6.576c0.912,0.912,2.103,1.358,3.293,1.358
		s2.381-0.456,3.293-1.358l6.575-6.585C394.121,275.231,394.41,274.748,394.633,274.236z"/>
	<path d="M373.975,288.802c-1.813-1.814-4.762-1.814-6.575,0l-6.576,6.576c-1.813,1.814-1.813,4.763,0,6.576
		c0.911,0.912,2.102,1.358,3.292,1.358c1.191,0,2.382-0.456,3.293-1.358l6.576-6.576
		C375.789,293.564,375.789,290.616,373.975,288.802z"/>
	<path d="M354.247,308.53c-1.813-1.814-4.763-1.814-6.576,0l-6.576,6.585c-1.813,1.814-1.813,4.762,0,6.576
		c0.912,0.912,2.103,1.358,3.293,1.358s2.381-0.456,3.293-1.358l6.576-6.585C356.061,313.292,356.061,310.344,354.247,308.53z"/>
	<path d="M396.996,296.736c1.19,0,2.381-0.456,3.292-1.358l6.576-6.576c0.419-0.418,0.707-0.902,0.93-1.405
		c0.763-1.711,0.466-3.767-0.93-5.171c-1.396-1.404-3.46-1.693-5.172-0.93c-0.502,0.224-0.995,0.521-1.404,0.93l-6.576,6.576
		c-1.813,1.813-1.813,4.762,0,6.576C394.615,296.29,395.805,296.736,396.996,296.736z"/>
	<path d="M377.268,316.474c1.19,0,2.381-0.456,3.293-1.358l6.576-6.576c1.813-1.814,1.813-4.762,0-6.576
		c-1.814-1.814-4.763-1.814-6.576,0l-6.576,6.576c-1.813,1.813-1.813,4.762,0,6.576
		C374.887,316.018,376.077,316.474,377.268,316.474z"/>
	<path d="M357.531,336.201c1.19,0,2.381-0.456,3.293-1.358l6.576-6.576c1.813-1.814,1.813-4.763,0-6.576
		c-1.814-1.814-4.763-1.814-6.576,0l-6.576,6.576c-1.813,1.813-1.813,4.762,0,6.576C355.158,335.746,356.35,336.201,357.531,336.201
		z"/>
	<path d="M567.376,393.042h-13.952h-13.951V179.112c0-5.134-4.158-9.301-9.302-9.301h-40.404c-2.335,0-4.586,0.875-6.307,2.456
		l-33.429,30.778c-7.599-1.925-16.268,0.67-21.616,2.846l31.94,31.95c2.307-5.953,4.446-14.083,2.633-21.43l30.415-27.997h27.467
		v204.628H51.156H37.205c-10.278,0-18.603,8.324-18.603,18.602v18.602c0,10.279,8.324,18.604,18.603,18.604h2.074h4.092h5.404
		c1.414,7.199,3.237,15.477,5.544,25.02l13.021,62.393c18.221,67.436,55.119,78.383,98.845,79.797
		c4.231,0.129,8.511,0.213,12.863,0.213h16.752l228.429,0.01c-0.009-0.047-0.019-0.084-0.037-0.131
		c0.01,0.037,0.019,0.084,0.037,0.121h12.966c5.274,0,11.32-0.334,17.803-1.293l0,0c28.602-4.213,65.751-20.527,83.107-73.805
		l21.16-92.324h5.506h2.604c0.502,0,0.968-0.111,1.46-0.148c9.581-0.754,17.143-8.68,17.143-18.455v-18.602
		C585.979,401.366,577.655,393.042,567.376,393.042z M419.115,587.41L419.115,587.41c0,0.057,0.009,0.121,0.019,0.176
		C419.123,587.531,419.115,587.466,419.115,587.41z"/>
</g>
</svg>
