<?xml version="1.0" encoding="utf-8"?>
<!-- Generator: Adobe Illustrator 16.0.0, SVG Export Plug-In . SVG Version: 6.00 Build 0)  -->
<!DOCTYPE svg PUBLIC "-//W3C//DTD SVG 1.1//EN" "http://www.w3.org/Graphics/SVG/1.1/DTD/svg11.dtd">
<svg version="1.1" id="Layer_1" xmlns="http://www.w3.org/2000/svg" xmlns:xlink="http://www.w3.org/1999/xlink" x="0px" y="0px"
	 width="30px" height="22.886px" viewBox="0 0 30 22.886" enable-background="new 0 0 30 22.886" xml:space="preserve">
<g>
	<g>
		<path d="M30,14.739c0-2.682-1.878-5.024-4.674-6.291c0.165,0.585,0.26,1.189,0.277,1.809c0.28,0.166,0.549,0.345,0.802,0.54
			c1.41,1.088,2.187,2.487,2.187,3.942c0,1.454-0.776,2.854-2.187,3.941c-1.547,1.193-3.627,1.85-5.857,1.85
			c-1.503,0-2.938-0.3-4.188-0.859c-0.777,0.153-1.584,0.25-2.414,0.284c1.704,1.282,4.033,2.073,6.602,2.073
			c1.649,0,3.199-0.325,4.548-0.898l3.441,1.756l-0.695-3.511C29.19,18.115,30,16.5,30,14.739z"/>
		<path d="M24.624,9.276c-0.018-0.619-0.112-1.224-0.276-1.808c-1.202-4.274-6.133-7.476-12.034-7.476C5.513-0.007,0,4.245,0,9.49
			c0,2.295,1.055,4.399,2.812,6.041l-0.906,4.573l4.483-2.287c1.758,0.746,3.777,1.171,5.925,1.171c0.219,0,0.437-0.005,0.653-0.014
			c0.829-0.033,1.637-0.13,2.415-0.284c5.316-1.051,9.246-4.771,9.246-9.2C24.627,9.419,24.626,9.348,24.624,9.276z M19.945,14.626
			c-1.867,1.439-4.33,2.28-6.993,2.396c-0.211,0.01-0.424,0.015-0.639,0.015c-0.412,0-0.819-0.018-1.222-0.052
			c-2.438-0.205-4.679-1.024-6.408-2.358c-1.837-1.417-2.849-3.241-2.849-5.136s1.012-3.719,2.849-5.136
			c2.015-1.554,4.725-2.41,7.63-2.41c2.906,0,5.616,0.856,7.631,2.41c0.911,0.703,1.619,1.506,2.102,2.368
			c0.306,0.547,0.521,1.118,0.64,1.702c0.071,0.351,0.107,0.707,0.107,1.065C22.793,11.385,21.782,13.209,19.945,14.626z"/>
	</g>
	<g>
		<circle fill-rule="evenodd" clip-rule="evenodd" cx="16.682" cy="9.519" r="1.347"/>
		<circle fill-rule="evenodd" clip-rule="evenodd" cx="12.314" cy="9.519" r="1.347"/>
		<circle fill-rule="evenodd" clip-rule="evenodd" cx="7.946" cy="9.519" r="1.348"/>
	</g>
</g>
</svg>
