<?xml version="1.0" encoding="utf-8"?>
<!-- Generator: Adobe Illustrator 16.0.0, SVG Export Plug-In . SVG Version: 6.00 Build 0)  -->
<!DOCTYPE svg PUBLIC "-//W3C//DTD SVG 1.1//EN" "http://www.w3.org/Graphics/SVG/1.1/DTD/svg11.dtd">
<svg version="1.1" id="Capa_1" xmlns="http://www.w3.org/2000/svg" xmlns:xlink="http://www.w3.org/1999/xlink" x="0px" y="0px"
	 width="557.76px" height="560.67px" viewBox="23.314 137.368 557.76 560.67" enable-background="new 23.314 137.368 557.76 560.67"
	 xml:space="preserve">
<g>
	<path d="M78.714,599.55L58.29,619.974l43.089,43.09l20.424-20.424c18.892,13,40.596,22.186,64.014,26.508v28.891h60.938v-28.891
		c23.416-4.322,45.12-13.508,64.011-26.508l20.424,20.424l43.09-43.09l-20.425-20.424c13.001-18.895,22.187-40.596,26.508-64.014
		h28.893v-60.939h-28.893c-4.321-23.414-13.507-45.119-26.508-64.013l20.425-20.424l-43.09-43.089l-20.424,20.424
		c-18.891-13-40.595-22.186-64.011-26.508v-28.892h-60.938v28.892c-23.415,4.322-45.119,13.507-64.014,26.508l-20.424-20.424
		L58.29,390.163l20.424,20.424c-13.001,18.895-22.187,40.596-26.508,64.014H23.314v60.938h28.893
		C56.531,558.955,65.716,580.66,78.714,599.55z M216.286,381.841c68.059,0,123.229,55.17,123.229,123.229
		s-55.17,123.229-123.229,123.229S93.057,573.128,93.057,505.07C93.054,437.011,148.228,381.841,216.286,381.841z"/>
	<path d="M562.334,246.858l18.171-7.748l-19.18-44.964l-18.168,7.75c-7.819-11.001-17.403-20.389-28.559-27.972l7.369-18.323
		l-45.352-18.234l-7.369,18.323c-13.218-2.224-26.806-2.081-39.97,0.419l-7.751-18.171l-44.965,19.174l7.751,18.171
		c-11.001,7.816-20.389,17.4-27.973,28.556l-18.322-7.37l-18.236,45.354l18.322,7.367c-2.247,13.301-2.104,26.716,0.423,39.973
		l-18.168,7.748l19.174,44.964l18.168-7.75c7.816,10.998,17.4,20.385,28.556,27.972l-7.366,18.323l45.352,18.233l7.366-18.323
		c13.215,2.22,26.806,2.081,39.973-0.419l7.751,18.171l44.965-19.174l-7.751-18.171c11.001-7.819,20.389-17.4,27.973-28.556
		l18.322,7.37l18.233-45.354l-18.319-7.367C565.001,273.53,564.859,260.115,562.334,246.858z M480.373,338.225
		c-9.552,4.075-19.614,6.14-29.907,6.14c-30.651,0-58.225-18.219-70.252-46.408c-16.51-38.717,1.554-83.646,40.271-100.156
		c9.552-4.075,19.611-6.14,29.904-6.14c30.654,0,58.228,18.218,70.252,46.408C537.151,276.783,519.087,321.715,480.373,338.225z"/>
</g>
</svg>
