<?xml version="1.0" encoding="utf-8"?>
<!-- Generator: Adobe Illustrator 16.0.0, SVG Export Plug-In . SVG Version: 6.00 Build 0)  -->
<!DOCTYPE svg PUBLIC "-//W3C//DTD SVG 1.1//EN" "http://www.w3.org/Graphics/SVG/1.1/DTD/svg11.dtd">
<svg version="1.1" id="Layer_1" xmlns="http://www.w3.org/2000/svg" xmlns:xlink="http://www.w3.org/1999/xlink" x="0px" y="0px"
	 width="170.115px" height="170.004px" viewBox="52.11 44.996 170.115 170.004"
	 enable-background="new 52.11 44.996 170.115 170.004" xml:space="preserve">
<g>
	<path d="M218.88,121.83l-8.489-8.49l3.979-11.31c2.11-5.95-1.021-12.52-6.99-14.65l-6.7-2.36v-7.11c0-6.33-5.15-11.47-11.459-11.47
		H177.21l-5.17-10.82c-2.64-5.53-9.75-8.07-15.31-5.42l-6.431,3.08l-5.01-5.021c-4.319-4.34-11.87-4.36-16.22-0.01l-8.5,8.49
		l-11.3-3.98c-5.82-2.1-12.59,1.16-14.66,6.97l-2.36,6.71h-7.11c-6.32,0-11.47,5.15-11.47,11.47v12l-10.85,5.18
		c-5.69,2.73-8.11,9.59-5.38,15.3l3.07,6.41l-5.03,5.03c-2.18,2.17-3.37,5.05-3.37,8.13c0,3.07,1.2,5.94,3.36,8.09l8.49,8.5
		l-4,11.33c-1.02,2.87-0.85,5.979,0.47,8.75c1.32,2.771,3.64,4.86,6.53,5.88l6.7,2.36v7.11c0,6.33,5.15,11.459,11.47,11.459h12.01
		l5.18,10.841c2.64,5.53,9.76,8.05,15.29,5.409l6.42-3.09l5.03,5.041c2.17,2.17,5.049,3.359,8.12,3.359s5.95-1.189,8.1-3.359
		l8.5-8.48l11.33,3.98c5.83,2.069,12.591-1.19,14.631-6.99l2.369-6.721h7.121c6.319,0,11.459-5.14,11.459-11.459v-11.99l10.83-5.181
		c5.69-2.729,8.131-9.59,5.4-15.31l-3.07-6.41l5.03-5.04C223.34,133.59,223.34,126.31,218.88,121.83z M205.471,154.061l-17.08,8.159
		v18.931h-14.98l-5,14.14L150.57,189l-13.391,13.359l-10.62-10.59l-13.48,6.521l-8.19-17.149H85.96v-14.98l-14.13-5l6.3-17.83
		l-13.38-13.4l10.6-10.6l-6.47-13.52l17.08-8.16V78.73h14.99l5-14.13l17.85,6.3l13.38-13.38l10.61,10.59l13.489-6.53l8.201,17.15
		h18.93v14.99l14.13,4.99l-6.3,17.86l13.39,13.38L199,140.55L205.471,154.061z"/>
	<path d="M162.75,120.77c-11.561,0-18.96,9.17-18.96,21.26c0.101,12.71,8.229,20.409,18.45,20.409c9.789,0,18.75-7.379,18.75-21.56
		C180.99,129.32,174.42,120.77,162.75,120.77z M162.55,153.811c-4.59,0-6.979-5.121-6.88-12.19c0-6.78,2.09-12.2,6.88-12.2
		c4.89,0,6.66,5.311,6.66,12.2C169.21,149.22,167.02,153.811,162.55,153.811z"/>
	<polygon points="153.16,92.64 114.3,162.66 122.73,162.66 161.71,92.64 	"/>
	<path d="M132.23,112.75c0-11.57-6.57-20.11-18.241-20.11c-11.56,0-18.96,9.17-18.96,21.26c0,12.71,8.13,20.42,18.45,20.42
		C123.26,134.32,132.23,126.92,132.23,112.75z M113.78,125.67c-4.59,0-6.98-5.1-6.98-12.19c0-6.78,2.19-12.19,6.88-12.19
		c4.9,0,6.78,5.31,6.78,12.19C120.45,121.08,118.26,125.67,113.78,125.67z"/>
</g>
</svg>
