<?xml version="1.0" encoding="utf-8"?>
<!-- Generator: Adobe Illustrator 16.0.0, SVG Export Plug-In . SVG Version: 6.00 Build 0)  -->
<!DOCTYPE svg PUBLIC "-//W3C//DTD SVG 1.1//EN" "http://www.w3.org/Graphics/SVG/1.1/DTD/svg11.dtd">
<svg version="1.1" id="Layer_1" xmlns="http://www.w3.org/2000/svg" xmlns:xlink="http://www.w3.org/1999/xlink" x="0px" y="0px"
	 width="770.399px" height="640.1px" viewBox="14.8 89.5 770.399 640.1" enable-background="new 14.8 89.5 770.399 640.1"
	 xml:space="preserve">
<path d="M785.199,406.3l-42.8,52L400,176.7L57.6,458.3l-42.8-52L400,89.5L785.199,406.3z M400.1,241.6l248.4,206V640.2v59V729.6
	H151.4V698.4v-58.2V446.8L400.1,241.6z M420.4,459C418.674,460.266,400,477,400,477s-18.699-16.801-20.4-18
	c-25.283-17.824-52.5-19-73.3-8.1c-20.5,9.898-32.8,31.698-34.3,56.8c-0.101,0.898-0.101,1.8-0.101,2.7c-0.3,19.1,7.2,36.8,18,52.5
	c4.801,7,9.9,13.6,15.2,20c7.8,9.898,94.85,91.767,94.85,91.767S487.1,592.7,494.9,582.9c5.3-6.4,10.399-13.102,15.199-20
	c10.801-15.802,18.301-33.4,18-52.5c0-0.9,0-1.802-0.101-2.7c-1.5-25.102-13.8-47-34.3-56.8C472.9,440,445.344,440.704,420.4,459z"
	/>
</svg>
