<?xml version="1.0" encoding="utf-8"?>
<!-- Generator: Adobe Illustrator 16.0.0, SVG Export Plug-In . SVG Version: 6.00 Build 0)  -->
<!DOCTYPE svg PUBLIC "-//W3C//DTD SVG 1.1//EN" "http://www.w3.org/Graphics/SVG/1.1/DTD/svg11.dtd">
<svg version="1.1" id="Layer_1" xmlns="http://www.w3.org/2000/svg" xmlns:xlink="http://www.w3.org/1999/xlink" x="0px" y="0px"
	 width="42.172px" height="37.882px" viewBox="3.914 6.06 42.172 37.882" enable-background="new 3.914 6.06 42.172 37.882"
	 xml:space="preserve">
<path d="M45.959,25.412c-0.292,0.781-1.039,1.297-1.873,1.297h-4.734v15.23c0,1.104-0.896,2-2,2h-8.425c-1.104,0-2-0.896-2-2v-7.379
	h-3.854v7.381c0,1.104-0.896,2-2,2h-8.424c-1.104,0-2-0.896-2-2V26.709H5.914c-0.834,0-1.58-0.518-1.873-1.298
	c-0.293-0.781-0.07-1.661,0.558-2.209l19.086-16.65c0.754-0.657,1.875-0.657,2.629,0l2.86,2.497c0.19-0.907,0.995-1.587,1.958-1.587
	h4.908c1.104,0,2,0.896,2,2v7.321l7.357,6.42C46.029,23.75,46.252,24.63,45.959,25.412z"/>
</svg>
