<?xml version="1.0" encoding="utf-8"?>
<!-- Generator: Adobe Illustrator 16.0.0, SVG Export Plug-In . SVG Version: 6.00 Build 0)  -->
<!DOCTYPE svg PUBLIC "-//W3C//DTD SVG 1.1//EN" "http://www.w3.org/Graphics/SVG/1.1/DTD/svg11.dtd">
<svg version="1.1" id="Layer_1" xmlns="http://www.w3.org/2000/svg" xmlns:xlink="http://www.w3.org/1999/xlink" x="0px" y="0px"
	 width="299.028px" height="412.326px" viewBox="106.486 49.837 299.028 412.326"
	 enable-background="new 106.486 49.837 299.028 412.326" xml:space="preserve">
<path d="M372.553,122.454h22.961c5.522,0,10-4.478,10-10V59.837c0-5.522-4.478-10-10-10H116.486c-5.522,0-10,4.478-10,10v52.617
	c0,5.522,4.478,10,10,10h22.961c9.27,62.04,38.201,112.225,75.94,133.546c-37.741,21.318-66.672,71.504-75.94,133.546h-22.961
	c-5.522,0-10,4.478-10,10v52.617c0,5.521,4.478,10,10,10h279.028c5.522,0,10-4.479,10-10v-52.617c0-5.522-4.478-10-10-10h-22.962
	c-9.27-62.04-38.201-112.226-75.941-133.545C334.352,234.682,363.283,184.496,372.553,122.454z M273.569,292.739
	c36.619,46.604,50.171,69.167,55.092,79.889c1.42,3.097,1.167,6.702-0.671,9.569s-5.011,4.602-8.417,4.602H192.428
	c-3.406,0-6.579-1.734-8.417-4.602c-1.838-2.868-2.092-6.475-0.671-9.569c4.92-10.721,18.472-33.282,55.093-79.894l1.069-1.358
	v-61.099l-1.346-1.44c-20.329-21.785-35.889-39.178-46.245-51.695c-3.005-3.632-3.065-8.869-0.146-12.569
	c2.919-3.7,8.027-4.858,12.257-2.782c13.722,6.735,33.876,14.765,51.979,14.765c18.255,0,38.292-7.972,51.886-14.659
	c4.231-2.085,9.342-0.925,12.263,2.776c2.922,3.702,2.861,8.941-0.146,12.573c-10.364,12.518-25.895,29.874-46.158,51.588
	l-1.345,1.44v61.106L273.569,292.739z"/>
</svg>
