<?xml version="1.0" encoding="utf-8"?>
<!-- Generator: Adobe Illustrator 16.0.0, SVG Export Plug-In . SVG Version: 6.00 Build 0)  -->
<!DOCTYPE svg PUBLIC "-//W3C//DTD SVG 1.1//EN" "http://www.w3.org/Graphics/SVG/1.1/DTD/svg11.dtd">
<svg version="1.1" id="Capa_1" xmlns="http://www.w3.org/2000/svg" xmlns:xlink="http://www.w3.org/1999/xlink" x="0px" y="0px"
	 width="609.563px" height="609.563px" viewBox="2.438 91.219 609.563 609.563"
	 enable-background="new 2.438 91.219 609.563 609.563" xml:space="preserve">
<path d="M306.609,296.032c16.66,0,30.782,5.791,42.363,17.373c11.582,11.582,17.373,25.703,17.373,42.365
	c0,16.661-5.791,30.783-17.373,42.365c-11.581,11.581-25.703,17.372-42.363,17.372c-16.661,0-30.782-5.791-42.363-17.372
	c-11.582-11.582-17.373-25.704-17.373-42.365c0-16.662,5.791-30.783,17.373-42.365C275.827,301.823,289.948,296.032,306.609,296.032
	z M455.343,356.988c0-20.319-3.859-39.418-11.582-57.299c-7.722-17.881-18.287-33.526-31.696-46.937
	c-13.41-13.411-29.057-24.078-46.937-32.002c-17.882-7.924-36.979-11.886-57.3-11.886h-0.609h-0.608
	c-20.317,0-39.418,3.962-57.299,11.886c-17.88,7.924-33.525,18.592-46.936,32.002s-23.977,29.056-31.697,46.937
	c-7.721,17.88-11.582,36.98-11.582,57.299v0.609v3.657c0,0.813,0.203,1.422,0.609,1.829c0,8.127,1.016,16.865,3.048,26.211
	c0.813,5.689,3.657,13.815,8.534,24.384c4.877,10.564,10.769,22.146,17.678,34.743c6.908,12.598,14.325,25.703,22.249,39.317
	c7.924,13.611,15.543,26.211,22.857,37.793c7.314,11.581,13.817,21.537,19.507,29.868c5.688,8.33,9.753,13.715,12.19,16.151
	c3.251,3.251,7.01,6.705,11.277,10.362c4.267,3.657,8.432,6.908,12.496,9.753c4.063,2.845,7.721,5.08,10.972,6.706
	c3.251,1.625,5.485,2.438,6.705,2.438c1.221,0,3.354-0.812,6.399-2.438c3.048-1.626,6.604-3.76,10.668-6.4
	c4.063-2.642,8.229-5.791,12.496-9.447c4.268-3.657,8.229-7.314,11.887-10.974c2.438-2.438,6.502-7.821,12.19-16.151
	c5.688-8.331,12.19-18.391,19.506-30.175c7.314-11.784,14.936-24.383,22.857-37.793c7.926-13.411,15.342-26.517,22.249-39.315
	c6.909-12.803,12.699-24.382,17.373-34.745c4.673-10.362,7.619-18.388,8.839-24.077c0.812-4.47,1.423-8.839,1.828-13.105
	c0.405-4.267,0.812-8.636,1.221-13.106v-1.829c0-0.812,0.102-1.422,0.305-1.829c0.203-0.407,0.306-1.016,0.306-1.829
	L455.343,356.988L455.343,356.988z M307.219,91.219c41.856,0,81.377,8.026,118.562,24.078c37.184,16.052,69.488,37.793,96.92,65.223
	s49.171,59.737,65.224,96.92C603.974,314.624,612,354.144,612,396c0,28.04-3.657,55.062-10.973,81.071
	c-7.314,26.009-17.576,50.289-30.783,72.843s-29.056,43.076-47.546,61.565c-18.489,18.488-39.013,34.339-61.564,47.547
	c-22.555,13.207-46.835,23.468-72.844,30.78c-26.008,7.314-53.031,10.975-81.071,10.975s-55.063-3.658-81.071-10.975
	c-26.008-7.313-50.289-17.573-72.843-30.78c-22.554-13.208-43.076-29.059-61.565-47.547c-18.489-18.489-34.339-39.014-47.546-61.565
	C30.986,527.36,20.725,503.08,13.41,477.071C6.096,451.062,2.438,424.04,2.438,396s3.657-55.063,10.973-81.072
	c7.314-26.008,17.575-50.289,30.782-72.842C57.4,219.532,73.249,199.01,91.739,180.52c18.49-18.49,39.013-34.339,61.565-47.546
	s46.835-23.468,72.843-30.783S279.179,91.219,307.219,91.219z"/>
</svg>
