<?xml version="1.0" encoding="utf-8"?>
<!-- Generator: Adobe Illustrator 16.0.0, SVG Export Plug-In . SVG Version: 6.00 Build 0)  -->
<!DOCTYPE svg PUBLIC "-//W3C//DTD SVG 1.1//EN" "http://www.w3.org/Graphics/SVG/1.1/DTD/svg11.dtd">
<svg version="1.1" id="Layer_1" xmlns="http://www.w3.org/2000/svg" xmlns:xlink="http://www.w3.org/1999/xlink" x="0px" y="0px"
	 width="25px" height="15px" viewBox="12.499 17.5 25 15" enable-background="new 12.499 17.5 25 15" xml:space="preserve">
<g>
	<path d="M14.215,18.529l9.07,5.442c0.943,0.566,2.486,0.566,3.43,0l9.07-5.442C36.729,17.963,36.6,17.5,35.5,17.5h-21
		C13.4,17.5,13.272,17.963,14.215,18.529z"/>
	<path d="M37.23,18.518c-0.164,0.281-0.446,0.577-0.932,0.868l-8.574,5.146l6.174,3.41c0.242,0.133,0.33,0.438,0.197,0.679
		c-0.092,0.165-0.263,0.258-0.438,0.258c-0.082,0-0.165-0.021-0.241-0.063l-6.742-3.723c-0.503,0.194-1.078,0.302-1.674,0.302
		c-0.596,0-1.171-0.108-1.674-0.302l-6.742,3.723c-0.077,0.043-0.16,0.063-0.241,0.063c-0.176,0-0.347-0.093-0.438-0.258
		c-0.134-0.242-0.046-0.546,0.196-0.679l6.174-3.41L13.7,19.386c-0.485-0.291-0.768-0.587-0.931-0.868
		c-0.167,0.292-0.27,0.624-0.27,0.982v11c0,1.1,0.9,2,2,2h21c1.101,0,2-0.9,2-2v-11C37.5,19.142,37.396,18.81,37.23,18.518z"/>
</g>
</svg>
