<?xml version="1.0" encoding="utf-8"?>
<!-- Generator: Adobe Illustrator 16.0.0, SVG Export Plug-In . SVG Version: 6.00 Build 0)  -->
<!DOCTYPE svg PUBLIC "-//W3C//DTD SVG 1.1//EN" "http://www.w3.org/Graphics/SVG/1.1/DTD/svg11.dtd">
<svg version="1.1" id="Capa_1" xmlns="http://www.w3.org/2000/svg" xmlns:xlink="http://www.w3.org/1999/xlink" x="0px" y="0px"
	 width="16.853px" height="23.376px" viewBox="0 0 16.853 23.376" enable-background="new 0 0 16.853 23.376" xml:space="preserve">
<g>
	<path d="M12.292,8.058c0,2.132-1.73,3.861-3.868,3.861c-2.132,0-3.856-1.729-3.856-3.861c0-2.132,1.726-3.865,3.856-3.865
		C10.561,4.192,12.292,5.926,12.292,8.058z"/>
	<path d="M13.033,12.944l2.516-0.479l-0.607-2.259l1.911-1.508l-1.694-1.807l0.917-2.461l-2.566-0.696L13.033,1.13l-2.565,0.975
		L8.601,0l-1.74,1.955L4.215,0.92L3.649,3.507L1.043,4.212L1.87,6.445L0,8.252L1.87,9.86L1.22,12.184l2.43,0.583L3.88,13.71
		l-2.922,8.211l3.215-0.833l2.433,2.288l1.819-6.589l2.002,6.589l2.17-2.086l3.559,0.148l-3.303-7.768L13.033,12.944z M3.609,8.058
		c0-2.662,2.16-4.821,4.814-4.821c2.665,0,4.822,2.16,4.822,4.821c0,2.661-2.157,4.818-4.822,4.818
		C5.77,12.876,3.609,10.719,3.609,8.058z M6.272,21.726l-1.858-1.924l-2.12,0.743l1.923-5.188l1.196-0.555l0.944-0.381l1.49,1.534
		L6.272,21.726z M12.44,20.369l-1.621,1.532l-1.793-6.033l1.224-1.27l2.405,0.756l2.361,5.278L12.44,20.369z"/>
</g>
</svg>
