<?xml version="1.0" encoding="utf-8"?>
<!-- Generator: Adobe Illustrator 16.0.0, SVG Export Plug-In . SVG Version: 6.00 Build 0)  -->
<!DOCTYPE svg PUBLIC "-//W3C//DTD SVG 1.1//EN" "http://www.w3.org/Graphics/SVG/1.1/DTD/svg11.dtd">
<svg version="1.1" id="Layer_1" xmlns="http://www.w3.org/2000/svg" xmlns:xlink="http://www.w3.org/1999/xlink" x="0px" y="0px"
	 width="595.28px" height="557.205px" viewBox="-0.001 142.344 595.28 557.205"
	 enable-background="new -0.001 142.344 595.28 557.205" xml:space="preserve">
<path d="M490.342,352.372c3.046,7.461-0.536,15.987-7.996,19.033c0,0-142.683,58.257-142.745,58.283
	c-3.099,1.34-6.308,2.24-9.556,2.24c-7.916,0-15.681-3.857-20.356-10.976l-70.795-107.803c-7.375-11.234-4.248-26.316,6.985-33.691
	c11.243-7.356,26.316-4.248,33.691,6.986l70.551,107.432l121.188-49.499C478.742,341.311,487.286,344.902,490.342,352.372z
	 M330.026,142.344c-89.668,0-169.03,44.764-217.067,113.073c9.941,6.486,19.632,15.38,29.005,26.814
	c35.838-53.586,93.783-91.182,160.827-99.264l27.232,46.083l27.232-46.084c103.057,12.421,184.974,94.334,197.4,197.39
	l-46.091,27.236l46.092,27.237c-8.307,68.9-47.767,128.221-103.748,163.773c3.566,8.129,5.576,16.441,5.93,25.01
	c0.262,6.262-0.384,12.178-1.683,17.795c83.329-44.775,140.124-132.771,140.124-233.81
	C595.28,261.332,476.291,142.344,330.026,142.344z M397.716,579.191c-61.147-49.143-78.246-24.986-105.991,2.754
	c-19.37,19.377-68.388-21.086-110.711-63.412c-42.327-42.332-82.782-91.342-63.415-110.713
	c27.747-27.742,51.896-44.851,2.741-105.981c-49.14-61.154-81.897-14.204-108.774,12.673
	C-19.463,345.53,9.931,461.121,124.172,575.38c114.256,114.242,229.846,143.617,260.856,112.611
	C411.901,661.111,458.865,628.357,397.716,579.191z M76.326,334.993c-0.825,0.337-2.036,0.833-3.576,1.463
	c-2.916,1.118-6.402,2.38-10.281,4.069c-1.81,0.872-3.84,1.816-5.69,2.98c-1.919,1.147-3.828,2.446-5.547,4.054
	c-1.879,1.521-3.339,3.464-5.029,5.501c-1.256,2.247-2.876,4.542-3.752,7.3c-1.271,2.611-1.728,5.617-2.487,8.577
	c-0.584,3.001-0.688,6.122-1.059,9.168c-0.037,6.158,0.201,12.073,0.994,17.114c0.415,5.124,1.716,9.453,2.229,12.454
	c0.629,3.011,0.988,4.73,0.988,4.73s-0.925-1.496-2.543-4.112c-1.534-2.696-4.139-6.161-6.425-11.089
	c-2.636-4.791-5.093-10.685-7.432-17.316c-0.832-3.421-1.961-6.971-2.586-10.773c-0.44-3.844-1.167-7.81-0.875-11.984
	c-0.127-4.168,0.727-8.381,1.501-12.638c1.232-4.124,2.546-8.304,4.557-12.022c1.837-3.801,4.15-7.242,6.461-10.242
	c2.325-3.092,4.725-5.622,6.985-7.976c4.513-4.439,8.43-7.684,10.713-9.674c1.306-1.094,1.841-1.686,2.424-2.205
	c0.516-0.482,0.79-0.74,0.79-0.74l20.97,32.798C77.656,334.429,77.193,334.625,76.326,334.993z M391.035,646.558
	c-2.057,2.561-5.283,6.523-9.659,11.014c-2.333,2.211-4.737,4.605-7.731,6.867c-2.804,2.344-6.213,4.488-9.686,6.5
	c-3.579,1.967-7.387,3.654-11.409,4.91c-3.979,1.213-8.111,2.191-12.168,2.52l-6.034,0.432l-5.854-0.314
	c-3.852-0.047-7.438-1.074-10.893-1.65c-3.446-0.639-6.571-1.92-9.563-2.779c-2.991-0.807-5.675-2.281-8.157-3.264
	c-5.027-1.996-8.629-4.303-11.346-5.73c-2.668-1.469-4.191-2.311-4.191-2.311s1.719,0.266,4.728,0.727
	c2.988,0.4,7.353,1.344,12.407,1.445c2.546,0.053,5.155,0.496,8.048,0.229c2.854-0.221,5.833-0.078,8.813-0.611
	c2.96-0.592,6.032-0.76,8.881-1.836l4.28-1.313l3.971-1.857c10.486-5.078,16.191-14.025,19.497-21.494
	c1.636-3.852,2.808-7.254,3.691-9.914c0.961-2.801,1.511-4.402,1.511-4.402l33.966,19.02
	C394.136,642.746,393.008,644.13,391.035,646.558z"/>
</svg>
