<?xml version="1.0" encoding="utf-8"?>
<!-- Generator: Adobe Illustrator 16.0.0, SVG Export Plug-In . SVG Version: 6.00 Build 0)  -->
<!DOCTYPE svg PUBLIC "-//W3C//DTD SVG 1.1//EN" "http://www.w3.org/Graphics/SVG/1.1/DTD/svg11.dtd">
<svg version="1.1" id="Capa_1" xmlns="http://www.w3.org/2000/svg" xmlns:xlink="http://www.w3.org/1999/xlink" x="0px" y="0px"
	 width="612px" height="612px" viewBox="0 90 612 612" enable-background="new 0 90 612 612" xml:space="preserve">
<path d="M478.584,501.876c4.487-4.488,6.119-9.384,4.896-14.688c-0.408-2.446-1.43-4.69-3.062-6.73
	c-1.633-2.04-3.469-3.876-5.509-5.508l-72.216-42.229l-0.612-0.609c-2.447-1.227-5.712-1.836-9.792-1.836
	c-6.527,0-11.628,2.039-15.3,6.117l-21.42,21.422c-1.226,1.225-2.855,1.837-4.896,1.837c-4.896-0.816-10.813-3.063-17.748-6.732
	c-5.712-3.264-12.954-7.854-21.727-13.771c-8.771-5.916-18.869-14.587-30.294-26.012c-8.159-8.565-15.708-17.136-22.644-25.704
	c-5.712-6.936-11.016-14.484-15.912-22.644c-4.896-8.16-7.548-15.3-7.956-21.42c0-2.04,0.612-3.672,1.836-4.896l18.36-18.36
	c3.264-3.264,5.304-7.242,6.12-11.934c0.815-4.692,0.204-9.078-1.836-13.158l-39.78-74.664c-3.264-6.528-8.16-9.792-14.688-9.792
	c-4.079,0-8.159,1.632-12.239,4.896l-48.96,49.572c-2.448,2.04-4.59,4.998-6.427,8.874c-1.836,3.876-2.958,7.446-3.365,10.71v15.3
	c0,0,2.651,12.648,7.956,37.944c5.304,25.296,14.586,44.268,27.846,56.916c13.26,12.647,32.742,36.516,58.446,71.604
	c22.031,22.032,42.636,39.372,61.812,52.021c19.176,12.646,36.414,22.134,51.714,28.458c15.3,6.321,28.254,10.302,38.86,11.934
	c10.607,1.632,18.155,2.448,22.646,2.448c2.04,0,3.672-0.104,4.896-0.308c1.226-0.202,2.04-0.307,2.447-0.307
	c3.265-0.408,6.731-1.53,10.404-3.366c3.672-1.836,6.73-3.978,9.18-6.426L478.584,501.876L478.584,501.876z M306,90
	c42.023,0,81.701,8.058,119.033,24.174c37.332,16.116,69.769,37.944,97.309,65.484s49.367,59.976,65.483,97.308S612,353.976,612,396
	c0,28.152-3.673,55.284-11.017,81.396c-7.346,26.11-17.646,50.488-30.906,73.135c-13.26,22.644-29.172,43.248-47.735,61.812
	c-18.563,18.564-39.168,34.479-61.813,47.736c-22.646,13.26-47.021,23.562-73.135,30.906C361.283,698.328,334.152,702,306,702
	c-28.152,0-55.284-3.672-81.396-11.016c-26.111-7.347-50.49-17.646-73.134-30.906s-43.248-29.172-61.812-47.736
	c-18.564-18.562-34.477-39.168-47.736-61.812c-13.26-22.646-23.563-47.022-30.906-73.135C3.672,451.284,0,424.152,0,396
	c0-28.152,3.672-55.284,11.016-81.396s17.646-50.49,30.906-73.134c13.26-22.644,29.172-43.248,47.736-61.812
	c18.563-18.564,39.168-34.476,61.812-47.736c22.644-13.26,47.022-23.562,73.134-30.906C250.716,93.672,277.848,90,306,90z"/>
</svg>
