<?xml version="1.0" encoding="utf-8"?>
<!-- Generator: Adobe Illustrator 16.0.0, SVG Export Plug-In . SVG Version: 6.00 Build 0)  -->
<!DOCTYPE svg PUBLIC "-//W3C//DTD SVG 1.1//EN" "http://www.w3.org/Graphics/SVG/1.1/DTD/svg11.dtd">
<svg version="1.1" id="Layer_1" xmlns="http://www.w3.org/2000/svg" xmlns:xlink="http://www.w3.org/1999/xlink" x="0px" y="0px"
	 width="26px" height="26px" viewBox="0 0 26 26" enable-background="new 0 0 26 26" xml:space="preserve">
<rect fill="none" width="26" height="26"/>
<path d="M22.387,18.025c-1.549-1.323-3.119-2.125-4.648-0.803l-0.913,0.799c-0.668,0.58-1.91,3.289-6.712-2.234
	C5.312,10.27,8.169,9.411,8.838,8.836l0.918-0.8c1.521-1.325,0.947-2.993-0.15-4.71l-0.662-1.04
	C7.842,0.573,6.642-0.552,5.117,0.771l-0.824,0.72C3.619,1.982,1.735,3.578,1.278,6.61c-0.55,3.638,1.185,7.804,5.16,12.375
	c3.97,4.574,7.857,6.871,11.539,6.83c3.061-0.032,4.908-1.674,5.486-2.271l0.827-0.721c1.521-1.322,0.576-2.668-0.974-3.995
	L22.387,18.025z"/>
</svg>
