<?xml version="1.0" encoding="utf-8"?>
<!-- Generator: Adobe Illustrator 16.0.0, SVG Export Plug-In . SVG Version: 6.00 Build 0)  -->
<!DOCTYPE svg PUBLIC "-//W3C//DTD SVG 1.1//EN" "http://www.w3.org/Graphics/SVG/1.1/DTD/svg11.dtd">
<svg version="1.1" id="Capa_1" xmlns="http://www.w3.org/2000/svg" xmlns:xlink="http://www.w3.org/1999/xlink" x="0px" y="0px"
	 width="595.263px" height="354.719px" viewBox="0.008 262.466 595.263 354.719"
	 enable-background="new 0.008 262.466 595.263 354.719" xml:space="preserve">
<g id="_x31_3">
	<g>
		<path d="M384.94,404.728l-63.716-110.387c-17.59-30.477-56.557-40.941-87.034-23.303L31.873,387.876
			c-30.477,17.59-40.909,56.542-23.319,87.067L72.27,585.33c17.59,30.445,56.557,40.924,87.034,23.287L361.62,491.779
			C392.097,474.189,402.53,435.205,384.94,404.728z M307.486,461.718l-147.154,84.98c-20.318,11.732-46.302,4.75-58.018-15.52
			L70.456,475.97c-11.732-20.352-4.767-46.334,15.551-58.05l147.14-84.997c20.318-11.732,46.302-4.783,58.018,15.552l31.857,55.193
			C334.753,423.986,327.804,449.986,307.486,461.718z M563.022,386.72l-164.007-93.214c-8.218,5.97-16.29,14.926-15.793,26.882
			c0.466,11.283,6.035,22.774,11.893,31.986l113.981,64.774c20.398,11.571,27.54,37.54,15.953,57.938l-31.473,55.385
			c-11.588,20.416-37.523,27.541-57.922,15.938l-54.583-30.99c-6.5,2.342-13.369,6.049-18.344,12.084
			c-7.175,8.715-10.031,22.438-11.187,32.227l85.574,48.645c30.59,17.383,69.493,6.645,86.874-23.961l62.945-110.818
			C604.332,442.988,593.611,404.069,563.022,386.72z"/>
	</g>
</g>
</svg>
