<?xml version="1.0" encoding="utf-8"?>
<!-- Generator: Adobe Illustrator 16.0.0, SVG Export Plug-In . SVG Version: 6.00 Build 0)  -->
<!DOCTYPE svg PUBLIC "-//W3C//DTD SVG 1.1//EN" "http://www.w3.org/Graphics/SVG/1.1/DTD/svg11.dtd">
<svg version="1.1" id="Layer_1" xmlns="http://www.w3.org/2000/svg" xmlns:xlink="http://www.w3.org/1999/xlink" x="0px" y="0px"
	 width="29.071px" height="33.707px" viewBox="10.465 8.147 29.071 33.707" enable-background="new 10.465 8.147 29.071 33.707"
	 xml:space="preserve">
<path d="M12.356,31.838h3.351v3.35h-3.351V31.838z M17.185,35.188h3.351v-3.35h-3.351V35.188z M12.356,40.213h3.351v-3.35h-3.351
	V40.213z M17.185,40.213h3.351v-3.35h-3.351V40.213z M31.355,35.188h3.352v-3.35h-3.352V35.188z M36.186,31.838v3.35h3.351v-3.35
	H36.186z M31.355,40.213h3.352v-3.35h-3.352V40.213z M36.186,40.213h3.351v-3.35h-3.351V40.213z M33.884,26.671l-6.429,4.297v10.886
	h-0.691h-2.309h-0.691V30.968l-5.025-3.358c-2.416-0.355-4.403-1.612-5.402-3.24c-1.891-0.884-3.092-2.901-2.838-5.089
	c0.29-2.487,2.365-4.313,4.798-4.387c1.063-4.279,5.155-7.207,9.65-6.686c3.368,0.393,6.067,2.62,7.231,5.568
	c0.441-0.207,0.942-0.307,1.463-0.244c1.496,0.174,2.565,1.525,2.395,3.021c-0.027,0.236-0.096,0.458-0.18,0.671
	c1.857,0.897,3.033,2.895,2.783,5.061C38.35,24.754,36.296,26.575,33.884,26.671z M25.609,28.593l1.146-0.766
	c-0.987-0.127-1.844-0.591-2.495-1.25c-0.292,0.184-0.608,0.343-0.938,0.485L25.609,28.593z"/>
</svg>
