<svg xmlns="http://www.w3.org/2000/svg" width="595.279" height="476.225" viewBox="0 182.833 595.279 476.225" enable-background="new 0 182.833 595.279 476.225">
<path fill="#ddd" d="M297.64 361.417c-49.318 0-89.292 39.991-89.292 89.292 0 49.32 39.974 89.293 89.292 89.293 49.307 0 89.292-39.973 89.292-89.293 0-49.301-39.985-89.292-89.292-89.292zm238.112-89.292h-71.434c-9.822 0-20.406-7.62-23.508-16.941l-18.466-55.415c-3.113-9.316-13.686-16.936-23.508-16.936h-202.393c-9.822 0-20.406 7.62-23.508 16.941l-18.466 55.415c-3.113 9.316-13.686 16.936-23.508 16.936h-71.433c-32.741 0-59.528 26.788-59.528 59.528v267.876c0 32.74 26.787 59.529 59.527 59.529h476.225c32.74 0 59.527-26.789 59.527-59.529v-267.876c.001-32.74-26.787-59.528-59.527-59.528zm-238.112 327.404c-82.19 0-148.82-66.629-148.82-148.82 0-82.184 66.63-148.819 148.82-148.819 82.179 0 148.82 66.636 148.82 148.819 0 82.191-66.641 148.82-148.82 148.82z"/></svg>